<mxfile host="app.diagrams.net" agent="Mozilla/5.0 (Windows NT 10.0; Win64; x64) AppleWebKit/537.36 (KHTML, like Gecko) Chrome/129.0.0.0 Safari/537.36 Edg/129.0.0.0" version="24.7.17">
  <diagram name="Страница — 1" id="6Z7cqa4MiS0r8r7yoB4F">
    <mxGraphModel dx="1042" dy="1744" grid="1" gridSize="10" guides="1" tooltips="1" connect="1" arrows="1" fold="1" page="1" pageScale="1" pageWidth="827" pageHeight="1169" math="0" shadow="0">
      <root>
        <mxCell id="0" />
        <mxCell id="1" parent="0" />
        <mxCell id="EMWkCA-jMNm1Hh3KmYXY-1" value="Пользователь" style="rounded=0;whiteSpace=wrap;html=1;" vertex="1" parent="1">
          <mxGeometry x="160.47" y="-40" width="100" height="30" as="geometry" />
        </mxCell>
        <mxCell id="EMWkCA-jMNm1Hh3KmYXY-2" value="Система" style="rounded=0;whiteSpace=wrap;html=1;" vertex="1" parent="1">
          <mxGeometry x="399.54" y="-40" width="100" height="30" as="geometry" />
        </mxCell>
        <mxCell id="EMWkCA-jMNm1Hh3KmYXY-3" value="БД" style="rounded=0;whiteSpace=wrap;html=1;" vertex="1" parent="1">
          <mxGeometry x="580" y="-40" width="100" height="30" as="geometry" />
        </mxCell>
        <mxCell id="EMWkCA-jMNm1Hh3KmYXY-4" value="" style="endArrow=none;html=1;rounded=0;exitX=0.5;exitY=1;exitDx=0;exitDy=0;dashed=1;" edge="1" parent="1" source="EMWkCA-jMNm1Hh3KmYXY-1">
          <mxGeometry width="50" height="50" relative="1" as="geometry">
            <mxPoint x="240" y="240" as="sourcePoint" />
            <mxPoint x="210" y="120" as="targetPoint" />
          </mxGeometry>
        </mxCell>
        <mxCell id="EMWkCA-jMNm1Hh3KmYXY-5" value="" style="endArrow=none;html=1;rounded=0;exitX=0.5;exitY=1;exitDx=0;exitDy=0;dashed=1;" edge="1" parent="1">
          <mxGeometry width="50" height="50" relative="1" as="geometry">
            <mxPoint x="449.5" y="80" as="sourcePoint" />
            <mxPoint x="449.5" y="120" as="targetPoint" />
          </mxGeometry>
        </mxCell>
        <mxCell id="EMWkCA-jMNm1Hh3KmYXY-6" value="" style="endArrow=none;html=1;rounded=0;exitX=0.5;exitY=1;exitDx=0;exitDy=0;dashed=1;entryX=1;entryY=0.5;entryDx=0;entryDy=0;" edge="1" parent="1" target="EMWkCA-jMNm1Hh3KmYXY-36">
          <mxGeometry width="50" height="50" relative="1" as="geometry">
            <mxPoint x="629.5" y="80" as="sourcePoint" />
            <mxPoint x="629.5" y="120" as="targetPoint" />
          </mxGeometry>
        </mxCell>
        <mxCell id="EMWkCA-jMNm1Hh3KmYXY-7" value="" style="rounded=0;whiteSpace=wrap;html=1;rotation=-90;" vertex="1" parent="1">
          <mxGeometry x="177.97" y="145.79" width="64.07" height="15" as="geometry" />
        </mxCell>
        <mxCell id="EMWkCA-jMNm1Hh3KmYXY-10" value="" style="rounded=0;whiteSpace=wrap;html=1;rotation=-90;" vertex="1" parent="1">
          <mxGeometry x="418.44" y="145.32" width="63.13" height="15" as="geometry" />
        </mxCell>
        <mxCell id="EMWkCA-jMNm1Hh3KmYXY-11" value="" style="endArrow=classic;html=1;rounded=0;exitX=1;exitY=1;exitDx=0;exitDy=0;entryX=0.5;entryY=1;entryDx=0;entryDy=0;edgeStyle=orthogonalEdgeStyle;" edge="1" parent="1" source="EMWkCA-jMNm1Hh3KmYXY-7" target="EMWkCA-jMNm1Hh3KmYXY-10">
          <mxGeometry width="50" height="50" relative="1" as="geometry">
            <mxPoint x="290" y="190" as="sourcePoint" />
            <mxPoint x="530" y="120" as="targetPoint" />
            <Array as="points">
              <mxPoint x="500" y="121" />
              <mxPoint x="500" y="153" />
            </Array>
          </mxGeometry>
        </mxCell>
        <mxCell id="EMWkCA-jMNm1Hh3KmYXY-12" value="Запрос на авторизацию" style="text;html=1;align=center;verticalAlign=middle;whiteSpace=wrap;rounded=0;" vertex="1" parent="1">
          <mxGeometry x="260" y="100" width="150" height="30" as="geometry" />
        </mxCell>
        <mxCell id="EMWkCA-jMNm1Hh3KmYXY-13" value="" style="endArrow=block;html=1;rounded=0;entryX=0;entryY=1;entryDx=0;entryDy=0;exitX=0;exitY=0;exitDx=0;exitDy=0;endFill=0;dashed=1;" edge="1" parent="1" source="EMWkCA-jMNm1Hh3KmYXY-10" target="EMWkCA-jMNm1Hh3KmYXY-7">
          <mxGeometry width="50" height="50" relative="1" as="geometry">
            <mxPoint x="310" y="290" as="sourcePoint" />
            <mxPoint x="360" y="240" as="targetPoint" />
          </mxGeometry>
        </mxCell>
        <mxCell id="EMWkCA-jMNm1Hh3KmYXY-14" value="Авторизация прошла успешно" style="text;html=1;align=center;verticalAlign=middle;whiteSpace=wrap;rounded=0;" vertex="1" parent="1">
          <mxGeometry x="242.5" y="160.32" width="185" height="30" as="geometry" />
        </mxCell>
        <mxCell id="EMWkCA-jMNm1Hh3KmYXY-16" value="" style="endArrow=block;html=1;rounded=0;entryX=0.5;entryY=1;entryDx=0;entryDy=0;endFill=0;dashed=1;align=center;" edge="1" parent="1" target="EMWkCA-jMNm1Hh3KmYXY-7">
          <mxGeometry width="50" height="50" relative="1" as="geometry">
            <mxPoint x="440" y="153" as="sourcePoint" />
            <mxPoint x="220" y="153.79" as="targetPoint" />
          </mxGeometry>
        </mxCell>
        <mxCell id="EMWkCA-jMNm1Hh3KmYXY-17" value="&lt;div style=&quot;text-align: justify;&quot;&gt;Сообщение об ошибке&lt;/div&gt;" style="edgeLabel;html=1;align=center;verticalAlign=middle;resizable=0;points=[];" vertex="1" connectable="0" parent="EMWkCA-jMNm1Hh3KmYXY-16">
          <mxGeometry x="0.4849" y="-3" relative="1" as="geometry">
            <mxPoint x="60" y="3" as="offset" />
          </mxGeometry>
        </mxCell>
        <mxCell id="EMWkCA-jMNm1Hh3KmYXY-18" value="" style="rounded=0;whiteSpace=wrap;html=1;rotation=-90;" vertex="1" parent="1">
          <mxGeometry x="178.43" y="250" width="64.07" height="15" as="geometry" />
        </mxCell>
        <mxCell id="EMWkCA-jMNm1Hh3KmYXY-19" value="" style="endArrow=none;html=1;rounded=0;exitX=0;exitY=0.5;exitDx=0;exitDy=0;dashed=1;entryX=1;entryY=0.5;entryDx=0;entryDy=0;" edge="1" parent="1" source="EMWkCA-jMNm1Hh3KmYXY-7" target="EMWkCA-jMNm1Hh3KmYXY-18">
          <mxGeometry width="50" height="50" relative="1" as="geometry">
            <mxPoint x="220" y="90" as="sourcePoint" />
            <mxPoint x="220" y="130" as="targetPoint" />
          </mxGeometry>
        </mxCell>
        <mxCell id="EMWkCA-jMNm1Hh3KmYXY-20" value="" style="rounded=0;whiteSpace=wrap;html=1;rotation=-90;" vertex="1" parent="1">
          <mxGeometry x="417.5" y="250" width="64.07" height="15" as="geometry" />
        </mxCell>
        <mxCell id="EMWkCA-jMNm1Hh3KmYXY-21" value="" style="endArrow=none;html=1;rounded=0;exitX=0;exitY=0.5;exitDx=0;exitDy=0;dashed=1;entryX=1;entryY=0.5;entryDx=0;entryDy=0;" edge="1" parent="1" source="EMWkCA-jMNm1Hh3KmYXY-10" target="EMWkCA-jMNm1Hh3KmYXY-20">
          <mxGeometry width="50" height="50" relative="1" as="geometry">
            <mxPoint x="220" y="195" as="sourcePoint" />
            <mxPoint x="220" y="235" as="targetPoint" />
          </mxGeometry>
        </mxCell>
        <mxCell id="EMWkCA-jMNm1Hh3KmYXY-22" value="" style="endArrow=classic;html=1;rounded=0;exitX=1;exitY=1;exitDx=0;exitDy=0;entryX=1;entryY=0;entryDx=0;entryDy=0;" edge="1" parent="1" source="EMWkCA-jMNm1Hh3KmYXY-18" target="EMWkCA-jMNm1Hh3KmYXY-20">
          <mxGeometry width="50" height="50" relative="1" as="geometry">
            <mxPoint x="450" y="360" as="sourcePoint" />
            <mxPoint x="500" y="310" as="targetPoint" />
          </mxGeometry>
        </mxCell>
        <mxCell id="EMWkCA-jMNm1Hh3KmYXY-23" value="Запрос на выбор таблицы" style="text;html=1;align=center;verticalAlign=middle;whiteSpace=wrap;rounded=0;" vertex="1" parent="1">
          <mxGeometry x="250" y="200" width="150" height="30" as="geometry" />
        </mxCell>
        <mxCell id="EMWkCA-jMNm1Hh3KmYXY-24" value="" style="endArrow=block;html=1;rounded=0;exitX=0;exitY=0;exitDx=0;exitDy=0;entryX=0;entryY=1;entryDx=0;entryDy=0;endFill=0;dashed=1;" edge="1" parent="1" source="EMWkCA-jMNm1Hh3KmYXY-20" target="EMWkCA-jMNm1Hh3KmYXY-18">
          <mxGeometry width="50" height="50" relative="1" as="geometry">
            <mxPoint x="228" y="235" as="sourcePoint" />
            <mxPoint x="452" y="235" as="targetPoint" />
          </mxGeometry>
        </mxCell>
        <mxCell id="EMWkCA-jMNm1Hh3KmYXY-25" value="" style="rounded=0;whiteSpace=wrap;html=1;rotation=-90;" vertex="1" parent="1">
          <mxGeometry x="177.96" y="350" width="64.07" height="15" as="geometry" />
        </mxCell>
        <mxCell id="EMWkCA-jMNm1Hh3KmYXY-27" value="" style="endArrow=none;html=1;rounded=0;exitX=0;exitY=0.5;exitDx=0;exitDy=0;dashed=1;entryX=1;entryY=0.5;entryDx=0;entryDy=0;" edge="1" parent="1" source="EMWkCA-jMNm1Hh3KmYXY-18" target="EMWkCA-jMNm1Hh3KmYXY-25">
          <mxGeometry width="50" height="50" relative="1" as="geometry">
            <mxPoint x="220" y="195" as="sourcePoint" />
            <mxPoint x="220" y="235" as="targetPoint" />
          </mxGeometry>
        </mxCell>
        <mxCell id="EMWkCA-jMNm1Hh3KmYXY-28" value="" style="rounded=0;whiteSpace=wrap;html=1;rotation=-90;" vertex="1" parent="1">
          <mxGeometry x="417.5" y="350" width="64.07" height="15" as="geometry" />
        </mxCell>
        <mxCell id="EMWkCA-jMNm1Hh3KmYXY-29" value="" style="endArrow=none;html=1;rounded=0;exitX=0;exitY=0.5;exitDx=0;exitDy=0;dashed=1;entryX=1;entryY=0.5;entryDx=0;entryDy=0;" edge="1" parent="1" source="EMWkCA-jMNm1Hh3KmYXY-20" target="EMWkCA-jMNm1Hh3KmYXY-28">
          <mxGeometry width="50" height="50" relative="1" as="geometry">
            <mxPoint x="220" y="300" as="sourcePoint" />
            <mxPoint x="220" y="335" as="targetPoint" />
          </mxGeometry>
        </mxCell>
        <mxCell id="EMWkCA-jMNm1Hh3KmYXY-30" value="" style="endArrow=classic;html=1;rounded=0;entryX=1;entryY=0;entryDx=0;entryDy=0;exitX=1;exitY=1;exitDx=0;exitDy=0;" edge="1" parent="1" source="EMWkCA-jMNm1Hh3KmYXY-25" target="EMWkCA-jMNm1Hh3KmYXY-28">
          <mxGeometry width="50" height="50" relative="1" as="geometry">
            <mxPoint x="240" y="330" as="sourcePoint" />
            <mxPoint x="452" y="235" as="targetPoint" />
          </mxGeometry>
        </mxCell>
        <mxCell id="EMWkCA-jMNm1Hh3KmYXY-31" value="Запрос на добавление данных" style="text;html=1;align=center;verticalAlign=middle;whiteSpace=wrap;rounded=0;" vertex="1" parent="1">
          <mxGeometry x="240" y="300" width="190" height="30" as="geometry" />
        </mxCell>
        <mxCell id="EMWkCA-jMNm1Hh3KmYXY-32" value="" style="endArrow=block;html=1;rounded=0;exitX=0;exitY=0;exitDx=0;exitDy=0;entryX=0;entryY=1;entryDx=0;entryDy=0;endFill=0;dashed=1;" edge="1" parent="1" source="EMWkCA-jMNm1Hh3KmYXY-28" target="EMWkCA-jMNm1Hh3KmYXY-25">
          <mxGeometry width="50" height="50" relative="1" as="geometry">
            <mxPoint x="452" y="300" as="sourcePoint" />
            <mxPoint x="228" y="300" as="targetPoint" />
          </mxGeometry>
        </mxCell>
        <mxCell id="EMWkCA-jMNm1Hh3KmYXY-33" value="Успешный выбор таблицы" style="text;html=1;align=center;verticalAlign=middle;whiteSpace=wrap;rounded=0;" vertex="1" parent="1">
          <mxGeometry x="237.5" y="265" width="190" height="30" as="geometry" />
        </mxCell>
        <mxCell id="EMWkCA-jMNm1Hh3KmYXY-35" value="Успешное добавление данных" style="text;html=1;align=center;verticalAlign=middle;whiteSpace=wrap;rounded=0;" vertex="1" parent="1">
          <mxGeometry x="240" y="365" width="190" height="30" as="geometry" />
        </mxCell>
        <mxCell id="EMWkCA-jMNm1Hh3KmYXY-36" value="" style="rounded=0;whiteSpace=wrap;html=1;rotation=-90;" vertex="1" parent="1">
          <mxGeometry x="597.96" y="350" width="64.07" height="15" as="geometry" />
        </mxCell>
        <mxCell id="EMWkCA-jMNm1Hh3KmYXY-37" value="" style="endArrow=classic;html=1;rounded=0;entryX=1;entryY=0;entryDx=0;entryDy=0;exitX=1;exitY=1;exitDx=0;exitDy=0;" edge="1" parent="1" source="EMWkCA-jMNm1Hh3KmYXY-28" target="EMWkCA-jMNm1Hh3KmYXY-36">
          <mxGeometry width="50" height="50" relative="1" as="geometry">
            <mxPoint x="490" y="300" as="sourcePoint" />
            <mxPoint x="452" y="335" as="targetPoint" />
          </mxGeometry>
        </mxCell>
        <mxCell id="EMWkCA-jMNm1Hh3KmYXY-38" value="Запрос на сохранение данных" style="text;html=1;align=center;verticalAlign=middle;whiteSpace=wrap;rounded=0;" vertex="1" parent="1">
          <mxGeometry x="450" y="300" width="180" height="30" as="geometry" />
        </mxCell>
        <mxCell id="EMWkCA-jMNm1Hh3KmYXY-39" value="" style="endArrow=block;html=1;rounded=0;exitX=0;exitY=0;exitDx=0;exitDy=0;entryX=0;entryY=1;entryDx=0;entryDy=0;endFill=0;dashed=1;" edge="1" parent="1" source="EMWkCA-jMNm1Hh3KmYXY-36" target="EMWkCA-jMNm1Hh3KmYXY-28">
          <mxGeometry width="50" height="50" relative="1" as="geometry">
            <mxPoint x="452" y="400" as="sourcePoint" />
            <mxPoint x="227" y="400" as="targetPoint" />
          </mxGeometry>
        </mxCell>
        <mxCell id="EMWkCA-jMNm1Hh3KmYXY-40" value="Успешное сохранение данных" style="text;html=1;align=center;verticalAlign=middle;whiteSpace=wrap;rounded=0;" vertex="1" parent="1">
          <mxGeometry x="470" y="360" width="140" height="30" as="geometry" />
        </mxCell>
        <mxCell id="EMWkCA-jMNm1Hh3KmYXY-41" value="" style="endArrow=none;html=1;rounded=0;exitX=0;exitY=0.5;exitDx=0;exitDy=0;dashed=1;entryX=1;entryY=0.5;entryDx=0;entryDy=0;" edge="1" parent="1" source="EMWkCA-jMNm1Hh3KmYXY-25" target="EMWkCA-jMNm1Hh3KmYXY-42">
          <mxGeometry width="50" height="50" relative="1" as="geometry">
            <mxPoint x="220" y="90" as="sourcePoint" />
            <mxPoint x="210" y="430" as="targetPoint" />
          </mxGeometry>
        </mxCell>
        <mxCell id="EMWkCA-jMNm1Hh3KmYXY-42" value="" style="rounded=0;whiteSpace=wrap;html=1;rotation=-90;" vertex="1" parent="1">
          <mxGeometry x="177.96" y="450" width="64.07" height="15" as="geometry" />
        </mxCell>
        <mxCell id="EMWkCA-jMNm1Hh3KmYXY-43" value="" style="rounded=0;whiteSpace=wrap;html=1;rotation=-90;" vertex="1" parent="1">
          <mxGeometry x="417.97" y="450" width="64.07" height="15" as="geometry" />
        </mxCell>
        <mxCell id="EMWkCA-jMNm1Hh3KmYXY-44" value="" style="endArrow=none;html=1;rounded=0;exitX=0;exitY=0.5;exitDx=0;exitDy=0;dashed=1;entryX=1;entryY=0.5;entryDx=0;entryDy=0;" edge="1" parent="1" source="EMWkCA-jMNm1Hh3KmYXY-28" target="EMWkCA-jMNm1Hh3KmYXY-43">
          <mxGeometry width="50" height="50" relative="1" as="geometry">
            <mxPoint x="459.5" y="90" as="sourcePoint" />
            <mxPoint x="459.5" y="130" as="targetPoint" />
          </mxGeometry>
        </mxCell>
        <mxCell id="EMWkCA-jMNm1Hh3KmYXY-45" value="" style="endArrow=none;html=1;rounded=0;exitX=0;exitY=0.5;exitDx=0;exitDy=0;dashed=1;entryX=1;entryY=0.5;entryDx=0;entryDy=0;" edge="1" parent="1" source="EMWkCA-jMNm1Hh3KmYXY-36" target="EMWkCA-jMNm1Hh3KmYXY-46">
          <mxGeometry width="50" height="50" relative="1" as="geometry">
            <mxPoint x="469.5" y="100" as="sourcePoint" />
            <mxPoint x="630" y="420" as="targetPoint" />
          </mxGeometry>
        </mxCell>
        <mxCell id="EMWkCA-jMNm1Hh3KmYXY-46" value="" style="rounded=0;whiteSpace=wrap;html=1;rotation=-90;" vertex="1" parent="1">
          <mxGeometry x="597.96" y="450" width="64.07" height="15" as="geometry" />
        </mxCell>
        <mxCell id="EMWkCA-jMNm1Hh3KmYXY-47" value="" style="endArrow=classic;html=1;rounded=0;exitX=1;exitY=1;exitDx=0;exitDy=0;entryX=1;entryY=0;entryDx=0;entryDy=0;" edge="1" parent="1" source="EMWkCA-jMNm1Hh3KmYXY-42" target="EMWkCA-jMNm1Hh3KmYXY-43">
          <mxGeometry width="50" height="50" relative="1" as="geometry">
            <mxPoint x="276" y="450" as="sourcePoint" />
            <mxPoint x="500" y="450" as="targetPoint" />
          </mxGeometry>
        </mxCell>
        <mxCell id="EMWkCA-jMNm1Hh3KmYXY-48" value="Запрос на удаление данных" style="text;html=1;align=center;verticalAlign=middle;whiteSpace=wrap;rounded=0;" vertex="1" parent="1">
          <mxGeometry x="230" y="400" width="190" height="30" as="geometry" />
        </mxCell>
        <mxCell id="EMWkCA-jMNm1Hh3KmYXY-49" value="" style="endArrow=block;html=1;rounded=0;exitX=0;exitY=0;exitDx=0;exitDy=0;entryX=0;entryY=1;entryDx=0;entryDy=0;endFill=0;dashed=1;" edge="1" parent="1" source="EMWkCA-jMNm1Hh3KmYXY-43" target="EMWkCA-jMNm1Hh3KmYXY-42">
          <mxGeometry width="50" height="50" relative="1" as="geometry">
            <mxPoint x="452" y="400" as="sourcePoint" />
            <mxPoint x="227" y="400" as="targetPoint" />
          </mxGeometry>
        </mxCell>
        <mxCell id="EMWkCA-jMNm1Hh3KmYXY-50" value="Успешное удаление данных" style="text;html=1;align=center;verticalAlign=middle;whiteSpace=wrap;rounded=0;" vertex="1" parent="1">
          <mxGeometry x="237.5" y="465" width="190" height="30" as="geometry" />
        </mxCell>
        <mxCell id="EMWkCA-jMNm1Hh3KmYXY-51" value="" style="endArrow=classic;html=1;rounded=0;exitX=1;exitY=1;exitDx=0;exitDy=0;entryX=1;entryY=0;entryDx=0;entryDy=0;" edge="1" parent="1" source="EMWkCA-jMNm1Hh3KmYXY-43" target="EMWkCA-jMNm1Hh3KmYXY-46">
          <mxGeometry width="50" height="50" relative="1" as="geometry">
            <mxPoint x="227" y="435" as="sourcePoint" />
            <mxPoint x="453" y="435" as="targetPoint" />
          </mxGeometry>
        </mxCell>
        <mxCell id="EMWkCA-jMNm1Hh3KmYXY-52" value="" style="endArrow=block;html=1;rounded=0;exitX=0;exitY=0;exitDx=0;exitDy=0;entryX=0;entryY=1;entryDx=0;entryDy=0;endFill=0;dashed=1;" edge="1" parent="1" source="EMWkCA-jMNm1Hh3KmYXY-46" target="EMWkCA-jMNm1Hh3KmYXY-43">
          <mxGeometry width="50" height="50" relative="1" as="geometry">
            <mxPoint x="453" y="500" as="sourcePoint" />
            <mxPoint x="227" y="500" as="targetPoint" />
          </mxGeometry>
        </mxCell>
        <mxCell id="EMWkCA-jMNm1Hh3KmYXY-53" value="Запрос на сохранение данных" style="text;html=1;align=center;verticalAlign=middle;whiteSpace=wrap;rounded=0;" vertex="1" parent="1">
          <mxGeometry x="450" y="400" width="180" height="30" as="geometry" />
        </mxCell>
        <mxCell id="EMWkCA-jMNm1Hh3KmYXY-54" value="Успешное сохранение данных" style="text;html=1;align=center;verticalAlign=middle;whiteSpace=wrap;rounded=0;" vertex="1" parent="1">
          <mxGeometry x="470" y="460" width="140" height="30" as="geometry" />
        </mxCell>
        <mxCell id="EMWkCA-jMNm1Hh3KmYXY-55" value="" style="endArrow=none;html=1;rounded=0;exitX=0;exitY=0.5;exitDx=0;exitDy=0;dashed=1;entryX=1;entryY=0.5;entryDx=0;entryDy=0;" edge="1" parent="1" source="EMWkCA-jMNm1Hh3KmYXY-42" target="EMWkCA-jMNm1Hh3KmYXY-56">
          <mxGeometry width="50" height="50" relative="1" as="geometry">
            <mxPoint x="120" y="420" as="sourcePoint" />
            <mxPoint x="210" y="530" as="targetPoint" />
          </mxGeometry>
        </mxCell>
        <mxCell id="EMWkCA-jMNm1Hh3KmYXY-56" value="" style="rounded=0;whiteSpace=wrap;html=1;rotation=-90;" vertex="1" parent="1">
          <mxGeometry x="178.43" y="550" width="64.07" height="15" as="geometry" />
        </mxCell>
        <mxCell id="EMWkCA-jMNm1Hh3KmYXY-57" value="" style="rounded=0;whiteSpace=wrap;html=1;rotation=-90;" vertex="1" parent="1">
          <mxGeometry x="417.5" y="550" width="64.07" height="15" as="geometry" />
        </mxCell>
        <mxCell id="EMWkCA-jMNm1Hh3KmYXY-58" value="" style="rounded=0;whiteSpace=wrap;html=1;rotation=-90;" vertex="1" parent="1">
          <mxGeometry x="597.96" y="550" width="64.07" height="15" as="geometry" />
        </mxCell>
        <mxCell id="EMWkCA-jMNm1Hh3KmYXY-59" value="" style="endArrow=none;html=1;rounded=0;exitX=0;exitY=0.5;exitDx=0;exitDy=0;dashed=1;entryX=1;entryY=0.5;entryDx=0;entryDy=0;" edge="1" parent="1" source="EMWkCA-jMNm1Hh3KmYXY-43" target="EMWkCA-jMNm1Hh3KmYXY-57">
          <mxGeometry width="50" height="50" relative="1" as="geometry">
            <mxPoint x="220" y="500" as="sourcePoint" />
            <mxPoint x="220" y="535" as="targetPoint" />
          </mxGeometry>
        </mxCell>
        <mxCell id="EMWkCA-jMNm1Hh3KmYXY-60" value="" style="endArrow=none;html=1;rounded=0;exitX=0;exitY=0.5;exitDx=0;exitDy=0;dashed=1;entryX=1;entryY=0.5;entryDx=0;entryDy=0;" edge="1" parent="1" source="EMWkCA-jMNm1Hh3KmYXY-46" target="EMWkCA-jMNm1Hh3KmYXY-58">
          <mxGeometry width="50" height="50" relative="1" as="geometry">
            <mxPoint x="230" y="510" as="sourcePoint" />
            <mxPoint x="230" y="545" as="targetPoint" />
          </mxGeometry>
        </mxCell>
        <mxCell id="EMWkCA-jMNm1Hh3KmYXY-61" value="" style="endArrow=classic;html=1;rounded=0;exitX=1;exitY=1;exitDx=0;exitDy=0;entryX=1;entryY=0;entryDx=0;entryDy=0;" edge="1" parent="1" source="EMWkCA-jMNm1Hh3KmYXY-56" target="EMWkCA-jMNm1Hh3KmYXY-57">
          <mxGeometry width="50" height="50" relative="1" as="geometry">
            <mxPoint x="227" y="435" as="sourcePoint" />
            <mxPoint x="453" y="435" as="targetPoint" />
          </mxGeometry>
        </mxCell>
        <mxCell id="EMWkCA-jMNm1Hh3KmYXY-62" value="" style="endArrow=classic;html=1;rounded=0;exitX=1;exitY=1;exitDx=0;exitDy=0;entryX=1;entryY=0;entryDx=0;entryDy=0;" edge="1" parent="1" source="EMWkCA-jMNm1Hh3KmYXY-57" target="EMWkCA-jMNm1Hh3KmYXY-58">
          <mxGeometry width="50" height="50" relative="1" as="geometry">
            <mxPoint x="237" y="445" as="sourcePoint" />
            <mxPoint x="463" y="445" as="targetPoint" />
          </mxGeometry>
        </mxCell>
        <mxCell id="EMWkCA-jMNm1Hh3KmYXY-63" value="" style="endArrow=block;html=1;rounded=0;exitX=0;exitY=0;exitDx=0;exitDy=0;entryX=0;entryY=1;entryDx=0;entryDy=0;endFill=0;dashed=1;" edge="1" parent="1" source="EMWkCA-jMNm1Hh3KmYXY-57" target="EMWkCA-jMNm1Hh3KmYXY-56">
          <mxGeometry width="50" height="50" relative="1" as="geometry">
            <mxPoint x="453" y="500" as="sourcePoint" />
            <mxPoint x="227" y="500" as="targetPoint" />
          </mxGeometry>
        </mxCell>
        <mxCell id="EMWkCA-jMNm1Hh3KmYXY-64" value="" style="endArrow=block;html=1;rounded=0;exitX=0;exitY=0;exitDx=0;exitDy=0;entryX=0;entryY=1;entryDx=0;entryDy=0;endFill=0;dashed=1;" edge="1" parent="1" source="EMWkCA-jMNm1Hh3KmYXY-58" target="EMWkCA-jMNm1Hh3KmYXY-57">
          <mxGeometry width="50" height="50" relative="1" as="geometry">
            <mxPoint x="463" y="510" as="sourcePoint" />
            <mxPoint x="237" y="510" as="targetPoint" />
          </mxGeometry>
        </mxCell>
        <mxCell id="EMWkCA-jMNm1Hh3KmYXY-65" value="Запрос на редактирование данных" style="text;html=1;align=center;verticalAlign=middle;whiteSpace=wrap;rounded=0;" vertex="1" parent="1">
          <mxGeometry x="230" y="500" width="210" height="30" as="geometry" />
        </mxCell>
        <mxCell id="EMWkCA-jMNm1Hh3KmYXY-66" value="Успешное редактирование данных" style="text;html=1;align=center;verticalAlign=middle;whiteSpace=wrap;rounded=0;" vertex="1" parent="1">
          <mxGeometry x="230" y="565" width="200" height="30" as="geometry" />
        </mxCell>
        <mxCell id="EMWkCA-jMNm1Hh3KmYXY-67" value="Запрос на сохранение данных" style="text;html=1;align=center;verticalAlign=middle;whiteSpace=wrap;rounded=0;" vertex="1" parent="1">
          <mxGeometry x="450" y="500" width="180" height="30" as="geometry" />
        </mxCell>
        <mxCell id="EMWkCA-jMNm1Hh3KmYXY-69" value="Успешное сохранение данных" style="text;html=1;align=center;verticalAlign=middle;whiteSpace=wrap;rounded=0;" vertex="1" parent="1">
          <mxGeometry x="470" y="555" width="140" height="30" as="geometry" />
        </mxCell>
        <mxCell id="EMWkCA-jMNm1Hh3KmYXY-70" value="" style="rounded=0;whiteSpace=wrap;html=1;rotation=-90;" vertex="1" parent="1">
          <mxGeometry x="178.43" y="650" width="64.07" height="15" as="geometry" />
        </mxCell>
        <mxCell id="EMWkCA-jMNm1Hh3KmYXY-71" value="" style="endArrow=none;html=1;rounded=0;dashed=1;entryX=1;entryY=0.5;entryDx=0;entryDy=0;exitX=0;exitY=0.5;exitDx=0;exitDy=0;" edge="1" parent="1" source="EMWkCA-jMNm1Hh3KmYXY-56" target="EMWkCA-jMNm1Hh3KmYXY-70">
          <mxGeometry width="50" height="50" relative="1" as="geometry">
            <mxPoint x="160" y="600" as="sourcePoint" />
            <mxPoint x="220" y="535" as="targetPoint" />
          </mxGeometry>
        </mxCell>
        <mxCell id="EMWkCA-jMNm1Hh3KmYXY-73" value="" style="endArrow=none;html=1;rounded=0;dashed=1;entryX=0;entryY=0.5;entryDx=0;entryDy=0;exitX=1;exitY=0.5;exitDx=0;exitDy=0;" edge="1" parent="1" source="EMWkCA-jMNm1Hh3KmYXY-74" target="EMWkCA-jMNm1Hh3KmYXY-57">
          <mxGeometry width="50" height="50" relative="1" as="geometry">
            <mxPoint x="450" y="620" as="sourcePoint" />
            <mxPoint x="230" y="545" as="targetPoint" />
          </mxGeometry>
        </mxCell>
        <mxCell id="EMWkCA-jMNm1Hh3KmYXY-74" value="" style="rounded=0;whiteSpace=wrap;html=1;rotation=-90;" vertex="1" parent="1">
          <mxGeometry x="417.5" y="650" width="64.07" height="15" as="geometry" />
        </mxCell>
        <mxCell id="EMWkCA-jMNm1Hh3KmYXY-75" value="" style="endArrow=classic;html=1;rounded=0;exitX=1;exitY=1;exitDx=0;exitDy=0;entryX=1;entryY=0;entryDx=0;entryDy=0;" edge="1" parent="1" source="EMWkCA-jMNm1Hh3KmYXY-70" target="EMWkCA-jMNm1Hh3KmYXY-74">
          <mxGeometry width="50" height="50" relative="1" as="geometry">
            <mxPoint x="228" y="535" as="sourcePoint" />
            <mxPoint x="452" y="535" as="targetPoint" />
          </mxGeometry>
        </mxCell>
        <mxCell id="EMWkCA-jMNm1Hh3KmYXY-76" value="Запрос на поиск данных" style="text;html=1;align=center;verticalAlign=middle;whiteSpace=wrap;rounded=0;" vertex="1" parent="1">
          <mxGeometry x="225" y="595" width="210" height="30" as="geometry" />
        </mxCell>
        <mxCell id="EMWkCA-jMNm1Hh3KmYXY-77" value="" style="endArrow=block;html=1;rounded=0;exitX=0;exitY=0;exitDx=0;exitDy=0;entryX=0;entryY=1;entryDx=0;entryDy=0;endFill=0;dashed=1;" edge="1" parent="1" source="EMWkCA-jMNm1Hh3KmYXY-74" target="EMWkCA-jMNm1Hh3KmYXY-70">
          <mxGeometry width="50" height="50" relative="1" as="geometry">
            <mxPoint x="452" y="600" as="sourcePoint" />
            <mxPoint x="228" y="600" as="targetPoint" />
          </mxGeometry>
        </mxCell>
        <mxCell id="EMWkCA-jMNm1Hh3KmYXY-78" value="Успешный поиск данных" style="text;html=1;align=center;verticalAlign=middle;whiteSpace=wrap;rounded=0;" vertex="1" parent="1">
          <mxGeometry x="225" y="665" width="210" height="30" as="geometry" />
        </mxCell>
        <mxCell id="EMWkCA-jMNm1Hh3KmYXY-79" value="" style="rounded=0;whiteSpace=wrap;html=1;rotation=-90;" vertex="1" parent="1">
          <mxGeometry x="177.96" y="750" width="64.07" height="15" as="geometry" />
        </mxCell>
        <mxCell id="EMWkCA-jMNm1Hh3KmYXY-80" value="" style="endArrow=none;html=1;rounded=0;dashed=1;entryX=1;entryY=0.5;entryDx=0;entryDy=0;exitX=0;exitY=0.5;exitDx=0;exitDy=0;" edge="1" parent="1" source="EMWkCA-jMNm1Hh3KmYXY-70" target="EMWkCA-jMNm1Hh3KmYXY-79">
          <mxGeometry width="50" height="50" relative="1" as="geometry">
            <mxPoint x="220" y="600" as="sourcePoint" />
            <mxPoint x="220" y="635" as="targetPoint" />
          </mxGeometry>
        </mxCell>
        <mxCell id="EMWkCA-jMNm1Hh3KmYXY-81" value="" style="rounded=0;whiteSpace=wrap;html=1;rotation=-90;" vertex="1" parent="1">
          <mxGeometry x="417.5" y="750" width="64.07" height="15" as="geometry" />
        </mxCell>
        <mxCell id="EMWkCA-jMNm1Hh3KmYXY-82" value="" style="endArrow=none;html=1;rounded=0;dashed=1;entryX=1;entryY=0.5;entryDx=0;entryDy=0;exitX=0;exitY=0.5;exitDx=0;exitDy=0;" edge="1" parent="1" source="EMWkCA-jMNm1Hh3KmYXY-74" target="EMWkCA-jMNm1Hh3KmYXY-81">
          <mxGeometry width="50" height="50" relative="1" as="geometry">
            <mxPoint x="220" y="700" as="sourcePoint" />
            <mxPoint x="220" y="735" as="targetPoint" />
          </mxGeometry>
        </mxCell>
        <mxCell id="EMWkCA-jMNm1Hh3KmYXY-83" value="" style="endArrow=classic;html=1;rounded=0;exitX=1;exitY=1;exitDx=0;exitDy=0;entryX=1;entryY=0;entryDx=0;entryDy=0;" edge="1" parent="1" source="EMWkCA-jMNm1Hh3KmYXY-79" target="EMWkCA-jMNm1Hh3KmYXY-81">
          <mxGeometry width="50" height="50" relative="1" as="geometry">
            <mxPoint x="302" y="790" as="sourcePoint" />
            <mxPoint x="526" y="790" as="targetPoint" />
          </mxGeometry>
        </mxCell>
        <mxCell id="EMWkCA-jMNm1Hh3KmYXY-84" value="" style="endArrow=block;html=1;rounded=0;exitX=0;exitY=0;exitDx=0;exitDy=0;entryX=0;entryY=1;entryDx=0;entryDy=0;endFill=0;dashed=1;" edge="1" parent="1" source="EMWkCA-jMNm1Hh3KmYXY-81" target="EMWkCA-jMNm1Hh3KmYXY-79">
          <mxGeometry width="50" height="50" relative="1" as="geometry">
            <mxPoint x="453" y="500" as="sourcePoint" />
            <mxPoint x="227" y="500" as="targetPoint" />
          </mxGeometry>
        </mxCell>
        <mxCell id="EMWkCA-jMNm1Hh3KmYXY-86" value="Запрос на просмотр данных" style="text;html=1;align=center;verticalAlign=middle;whiteSpace=wrap;rounded=0;" vertex="1" parent="1">
          <mxGeometry x="230" y="695" width="210" height="30" as="geometry" />
        </mxCell>
        <mxCell id="EMWkCA-jMNm1Hh3KmYXY-87" value="Успешный просмотр данных" style="text;html=1;align=center;verticalAlign=middle;whiteSpace=wrap;rounded=0;" vertex="1" parent="1">
          <mxGeometry x="225" y="765" width="210" height="30" as="geometry" />
        </mxCell>
        <mxCell id="EMWkCA-jMNm1Hh3KmYXY-88" value="" style="rounded=0;whiteSpace=wrap;html=1;rotation=-90;" vertex="1" parent="1">
          <mxGeometry x="417.5" y="840" width="64.07" height="15" as="geometry" />
        </mxCell>
        <mxCell id="EMWkCA-jMNm1Hh3KmYXY-89" value="" style="endArrow=none;html=1;rounded=0;dashed=1;entryX=1;entryY=0.5;entryDx=0;entryDy=0;exitX=0;exitY=0.5;exitDx=0;exitDy=0;" edge="1" parent="1" source="EMWkCA-jMNm1Hh3KmYXY-81" target="EMWkCA-jMNm1Hh3KmYXY-88">
          <mxGeometry width="50" height="50" relative="1" as="geometry">
            <mxPoint x="460" y="700" as="sourcePoint" />
            <mxPoint x="460" y="735" as="targetPoint" />
          </mxGeometry>
        </mxCell>
        <mxCell id="EMWkCA-jMNm1Hh3KmYXY-92" value="" style="endArrow=none;html=1;rounded=0;dashed=1;exitX=0;exitY=0.5;exitDx=0;exitDy=0;entryX=1;entryY=0.5;entryDx=0;entryDy=0;" edge="1" parent="1" source="EMWkCA-jMNm1Hh3KmYXY-58" target="EMWkCA-jMNm1Hh3KmYXY-93">
          <mxGeometry width="50" height="50" relative="1" as="geometry">
            <mxPoint x="460" y="700" as="sourcePoint" />
            <mxPoint x="630" y="810" as="targetPoint" />
          </mxGeometry>
        </mxCell>
        <mxCell id="EMWkCA-jMNm1Hh3KmYXY-93" value="" style="rounded=0;whiteSpace=wrap;html=1;rotation=-90;" vertex="1" parent="1">
          <mxGeometry x="597.96" y="840" width="64.07" height="15" as="geometry" />
        </mxCell>
        <mxCell id="EMWkCA-jMNm1Hh3KmYXY-97" value="" style="endArrow=classic;html=1;rounded=0;exitX=1;exitY=1;exitDx=0;exitDy=0;entryX=1;entryY=0;entryDx=0;entryDy=0;" edge="1" parent="1" source="EMWkCA-jMNm1Hh3KmYXY-88" target="EMWkCA-jMNm1Hh3KmYXY-93">
          <mxGeometry width="50" height="50" relative="1" as="geometry">
            <mxPoint x="440" y="930" as="sourcePoint" />
            <mxPoint x="664" y="930" as="targetPoint" />
          </mxGeometry>
        </mxCell>
        <mxCell id="EMWkCA-jMNm1Hh3KmYXY-99" value="" style="endArrow=block;html=1;rounded=0;exitX=0;exitY=0;exitDx=0;exitDy=0;entryX=0;entryY=1;entryDx=0;entryDy=0;endFill=0;dashed=1;" edge="1" parent="1" source="EMWkCA-jMNm1Hh3KmYXY-93" target="EMWkCA-jMNm1Hh3KmYXY-88">
          <mxGeometry width="50" height="50" relative="1" as="geometry">
            <mxPoint x="452" y="600" as="sourcePoint" />
            <mxPoint x="228" y="600" as="targetPoint" />
          </mxGeometry>
        </mxCell>
        <mxCell id="EMWkCA-jMNm1Hh3KmYXY-100" value="Запрос на хранение данных" style="text;html=1;align=center;verticalAlign=middle;whiteSpace=wrap;rounded=0;" vertex="1" parent="1">
          <mxGeometry x="435" y="795" width="210" height="30" as="geometry" />
        </mxCell>
        <mxCell id="EMWkCA-jMNm1Hh3KmYXY-101" value="Успешное хранение данных" style="text;html=1;align=center;verticalAlign=middle;whiteSpace=wrap;rounded=0;" vertex="1" parent="1">
          <mxGeometry x="440" y="850" width="210" height="30" as="geometry" />
        </mxCell>
        <mxCell id="EMWkCA-jMNm1Hh3KmYXY-102" value="" style="rounded=0;whiteSpace=wrap;html=1;rotation=-90;" vertex="1" parent="1">
          <mxGeometry x="418.44" y="39.999999999999986" width="64.07" height="15" as="geometry" />
        </mxCell>
        <mxCell id="EMWkCA-jMNm1Hh3KmYXY-103" value="" style="rounded=0;whiteSpace=wrap;html=1;rotation=-90;" vertex="1" parent="1">
          <mxGeometry x="597.96" y="39.999999999999986" width="64.07" height="15" as="geometry" />
        </mxCell>
        <mxCell id="EMWkCA-jMNm1Hh3KmYXY-104" value="" style="endArrow=none;html=1;rounded=0;exitX=0.5;exitY=1;exitDx=0;exitDy=0;dashed=1;entryX=1;entryY=0.5;entryDx=0;entryDy=0;" edge="1" parent="1" source="EMWkCA-jMNm1Hh3KmYXY-2" target="EMWkCA-jMNm1Hh3KmYXY-102">
          <mxGeometry width="50" height="50" relative="1" as="geometry">
            <mxPoint x="459.5" y="90" as="sourcePoint" />
            <mxPoint x="480" y="20" as="targetPoint" />
          </mxGeometry>
        </mxCell>
        <mxCell id="EMWkCA-jMNm1Hh3KmYXY-105" value="" style="endArrow=none;html=1;rounded=0;exitX=0.5;exitY=1;exitDx=0;exitDy=0;dashed=1;entryX=1;entryY=0.5;entryDx=0;entryDy=0;" edge="1" parent="1" source="EMWkCA-jMNm1Hh3KmYXY-3" target="EMWkCA-jMNm1Hh3KmYXY-103">
          <mxGeometry width="50" height="50" relative="1" as="geometry">
            <mxPoint x="469.5" y="100" as="sourcePoint" />
            <mxPoint x="469.5" y="140" as="targetPoint" />
          </mxGeometry>
        </mxCell>
        <mxCell id="EMWkCA-jMNm1Hh3KmYXY-106" value="" style="endArrow=classic;html=1;rounded=0;entryX=1;entryY=0;entryDx=0;entryDy=0;exitX=1;exitY=1;exitDx=0;exitDy=0;" edge="1" parent="1" source="EMWkCA-jMNm1Hh3KmYXY-102" target="EMWkCA-jMNm1Hh3KmYXY-103">
          <mxGeometry width="50" height="50" relative="1" as="geometry">
            <mxPoint x="227" y="335" as="sourcePoint" />
            <mxPoint x="452" y="335" as="targetPoint" />
          </mxGeometry>
        </mxCell>
        <mxCell id="EMWkCA-jMNm1Hh3KmYXY-108" value="" style="endArrow=block;html=1;rounded=0;exitX=0;exitY=0;exitDx=0;exitDy=0;entryX=0;entryY=1;entryDx=0;entryDy=0;endFill=0;dashed=1;" edge="1" parent="1" source="EMWkCA-jMNm1Hh3KmYXY-103" target="EMWkCA-jMNm1Hh3KmYXY-102">
          <mxGeometry width="50" height="50" relative="1" as="geometry">
            <mxPoint x="452" y="400" as="sourcePoint" />
            <mxPoint x="227" y="400" as="targetPoint" />
          </mxGeometry>
        </mxCell>
        <mxCell id="EMWkCA-jMNm1Hh3KmYXY-109" value="Запрос на загрузку данных" style="text;html=1;align=center;verticalAlign=middle;whiteSpace=wrap;rounded=0;" vertex="1" parent="1">
          <mxGeometry x="450" y="-10" width="190" height="30" as="geometry" />
        </mxCell>
        <mxCell id="EMWkCA-jMNm1Hh3KmYXY-110" value="Успешная загрузка данных" style="text;html=1;align=center;verticalAlign=middle;whiteSpace=wrap;rounded=0;" vertex="1" parent="1">
          <mxGeometry x="450" y="55" width="190" height="30" as="geometry" />
        </mxCell>
      </root>
    </mxGraphModel>
  </diagram>
</mxfile>
